<svg width="24" height="24" viewBox="0 0 24 24" fill="none" xmlns="http://www.w3.org/2000/svg">
<g id="vuesax-linear-heart 1" clip-path="url(#clip0_549_59)">
<g id="vuesax/linear/heart">
<g id="heart">
<path id="Vector" d="M12.7569 20.6284C12.3649 20.7446 11.9476 20.7446 11.5556 20.6284C8.74624 19.6694 2.46874 15.6684 2.46874 8.88718C2.4667 8.1779 2.60442 7.47517 2.87403 6.81913C3.14363 6.16309 3.53984 5.56659 4.04003 5.0637C4.54021 4.56082 5.13457 4.1614 5.78915 3.88827C6.44374 3.61514 7.14571 3.47364 7.85499 3.47186C8.69179 3.47145 9.51699 3.66761 10.2641 4.04453C11.0112 4.42145 11.6593 4.96859 12.1562 5.64186C12.8321 4.73187 13.7784 4.0589 14.8598 3.71919C15.9412 3.37949 17.1024 3.39045 18.1772 3.75051C19.252 4.11057 20.1854 4.80129 20.844 5.72388C21.5025 6.64648 21.8525 7.75369 21.8437 8.88718C21.8437 15.6684 15.5662 19.6694 12.7569 20.6284Z" stroke="#292D32" stroke-width="1.45312" stroke-linecap="round" stroke-linejoin="round"/>
</g>
</g>
</g>
<defs>
<clipPath id="clip0_549_59">
<rect width="23.25" height="23.25" fill="white" transform="translate(0.53125 0.46875)"/>
</clipPath>
</defs>
</svg>
