<svg width="24" height="24" viewBox="0 0 24 24" fill="none" xmlns="http://www.w3.org/2000/svg">
<g id="vuesax-linear-profile 1" clip-path="url(#clip0_522_107)">
<g id="vuesax/linear/profile">
<g id="profile">
<path id="Vector" d="M12.16 10.87C12.0502 10.86 11.9398 10.86 11.83 10.87C10.6662 10.8267 9.56585 10.3285 8.7656 9.48239C7.96536 8.63629 7.52914 7.50991 7.55075 6.34552C7.57237 5.18112 8.05011 4.07172 8.88121 3.2559C9.71231 2.44009 10.8304 1.98303 11.995 1.98303C13.1596 1.98303 14.2777 2.44009 15.1088 3.2559C15.9399 4.07172 16.4176 5.18112 16.4392 6.34552C16.4608 7.50991 16.0246 8.63629 15.2244 9.48239C14.4241 10.3285 13.3238 10.8267 12.16 10.87Z" stroke="#292D32" stroke-width="1.5" stroke-linecap="round" stroke-linejoin="round"/>
<path id="Vector_2" d="M7.15997 14.561C4.73997 16.181 4.73997 18.821 7.15997 20.431C8.67323 21.3341 10.4027 21.811 12.165 21.811C13.9273 21.811 15.6567 21.3341 17.17 20.431C19.59 18.811 19.59 16.171 17.17 14.561C15.6551 13.6626 13.9262 13.1885 12.165 13.1885C10.4037 13.1885 8.67488 13.6626 7.15997 14.561V14.561Z" stroke="#292D32" stroke-width="1.5" stroke-linecap="round" stroke-linejoin="round"/>
</g>
</g>
</g>
<defs>
<clipPath id="clip0_522_107">
<rect width="24" height="24" fill="white"/>
</clipPath>
</defs>
</svg>
