<svg width="48" height="46" viewBox="0 0 48 46" fill="none" xmlns="http://www.w3.org/2000/svg">
<g id="Group 8892">
<path id="Rectangle 1064" d="M24.6013 0.00149894H23.0702C10.4511 0.00149894 0.221191 10.2314 0.221191 22.8505C0.221191 35.4697 10.4511 45.6996 23.0702 45.6996H24.6013C37.2205 45.6996 47.4503 35.4697 47.4503 22.8505C47.4503 10.2314 37.2205 0.00149894 24.6013 0.00149894Z" fill="#FAFAFA"/>
<g id="svgexport-10 (50)">
<path id="Path 12" d="M12.5596 32.1967C12.5093 32.1968 12.4596 32.1867 12.4135 32.1672C12.3674 32.1477 12.326 32.1191 12.2918 32.0833C12.2577 32.0476 12.2316 32.0053 12.2153 31.9593C12.1989 31.9133 12.1925 31.8644 12.1966 31.8159C12.2054 31.6912 13.2671 19.4965 27.1446 18.4502L27.1111 13.8537C27.1107 13.7827 27.1325 13.7131 27.1736 13.6543C27.2148 13.5954 27.2734 13.55 27.3417 13.5239C27.41 13.4979 27.4849 13.4924 27.5565 13.5083C27.6281 13.5242 27.693 13.5606 27.7428 13.6129L35.3812 21.4329C35.4449 21.4982 35.4804 21.5845 35.4804 21.6743C35.4804 21.764 35.4449 21.8504 35.3812 21.9156L27.6956 29.8062C27.6454 29.8576 27.5803 29.8932 27.5089 29.9084C27.4374 29.9236 27.3629 29.9175 27.2951 29.8911C27.2272 29.8647 27.1691 29.8191 27.1284 29.7603C27.0877 29.7016 27.0663 29.6323 27.0669 29.5615L27.1111 25.0869C24.3733 25.2642 21.7003 25.9722 19.2509 27.1689C16.8015 28.3656 14.6257 30.0265 12.8529 32.053C12.8191 32.0975 12.7749 32.1337 12.724 32.1587C12.673 32.1837 12.6167 32.1967 12.5596 32.1967ZM27.8412 14.7467L27.8707 18.7796C27.8714 18.8695 27.8366 18.9563 27.7733 19.0221C27.71 19.088 27.623 19.1279 27.5303 19.1338C16.3636 19.8164 13.7069 27.6888 13.0969 30.7125C16.8784 26.91 22.0106 24.6381 27.4565 24.3557C27.5062 24.3531 27.5559 24.3604 27.6026 24.3771C27.6492 24.3938 27.6919 24.4196 27.7278 24.4529C27.7638 24.4862 27.7923 24.5262 27.8117 24.5706C27.831 24.615 27.8407 24.6627 27.8402 24.7108L27.8019 28.6694L34.6147 21.6757L27.8412 14.7467Z" fill="#707070" stroke="#707070" stroke-width="0.756534"/>
</g>
</g>
</svg>
