<svg width="50" height="34" viewBox="0 0 50 34" fill="none" xmlns="http://www.w3.org/2000/svg">
<g id="hover">
<g id="svgexport-10 - 2022-07-17T185732.506">
<g id="Layer 2">
<path id="Path 23734" d="M19.9147 16.9924C19.9491 16.9467 19.9774 16.8967 19.9988 16.8434C20.0307 16.764 20.0466 16.6791 20.0456 16.5935M19.9147 16.9924L20.0456 16.5935M19.9147 16.9924L20.0014 17.2528H19.3924H16.6207H16.6077L16.6077 17.2526C16.5757 17.2517 16.5439 17.2571 16.514 17.2688L16.3548 16.8595L16.514 17.2688C16.4842 17.2804 16.4569 17.2979 16.4338 17.3203C16.4107 17.3428 16.3924 17.3697 16.3798 17.3994C16.3672 17.4292 16.3607 17.4612 16.3607 17.4936C16.3607 17.526 16.3672 17.558 16.3798 17.5878C16.3924 17.6176 16.4107 17.6445 16.4338 17.6669C16.4569 17.6893 16.4842 17.7069 16.514 17.7185C16.5439 17.7301 16.5757 17.7356 16.6077 17.7346L16.6207 17.7342V17.7344H19.3924H19.3929C19.6925 17.7348 19.9802 17.6159 20.1926 17.4036C20.405 17.1914 20.5247 16.9032 20.5253 16.6024C20.5253 16.6023 20.5253 16.6022 20.5253 16.6021L20.5253 11.0491V11.0486C20.5256 10.7476 20.4066 10.459 20.1948 10.2462C19.983 10.0334 19.6957 9.91376 19.3962 9.91322H16.6289C16.5686 9.91625 16.5115 9.94206 16.4691 9.9858C16.4256 10.0307 16.4011 10.0911 16.4011 10.154C16.4011 10.217 16.4256 10.2773 16.4691 10.3223C16.5115 10.366 16.5686 10.3918 16.6289 10.3948H19.3924H19.3949V10.3948C19.5671 10.3958 19.7318 10.4651 19.853 10.5872L19.853 10.5872C19.9742 10.7093 20.042 10.8743 20.042 11.0461C20.042 11.0461 20.042 11.0461 20.042 11.0461V13.1397V13.5788H19.6029H16.6289C16.5686 13.5818 16.5115 13.6076 16.4691 13.6514C16.4256 13.6963 16.4011 13.7567 16.4011 13.8196C16.4011 13.8826 16.4256 13.9429 16.4691 13.9878L16.1591 14.2883L16.4691 13.9878C16.5115 14.0316 16.5686 14.0574 16.6289 14.0604H19.6065H20.0456V14.4996V16.5935M19.9147 16.9924L20.0456 16.5935M20.0456 16.5935V16.5968H19.6065L20.0455 16.5879C20.0456 16.5898 20.0456 16.5917 20.0456 16.5935Z" stroke="#B93C3C" stroke-width="0.878262"/>
<path id="Path 23735" d="M23.4576 17.064L23.4576 17.064C23.3969 17.0035 23.3488 16.9317 23.316 16.8527L23.316 16.8527C23.2832 16.7736 23.2663 16.6889 23.2663 16.6033V14.5001V14.061H23.7055H25.7999C25.9725 14.061 26.1378 14.1297 26.2596 14.2517L25.9488 14.5619L26.2596 14.2517C26.3813 14.3736 26.4496 14.5389 26.4496 14.711V16.6033C26.4496 16.7755 26.3813 16.9407 26.2596 17.0627C26.1378 17.1847 25.9725 17.2534 25.7999 17.2534H23.9181H23.9172V16.8142C23.8894 16.8144 23.8619 16.8091 23.8363 16.7985L23.4576 17.064ZM23.4576 17.064C23.5183 17.1244 23.5904 17.1723 23.6697 17.2048L23.4576 17.064ZM26.9286 16.602C26.9286 16.6021 26.9286 16.6022 26.9286 16.6023C26.9281 16.9027 26.8088 17.1904 26.5971 17.4025C26.3853 17.6147 26.0984 17.7339 25.7993 17.7344H23.918C23.6187 17.7338 23.3317 17.6145 23.1197 17.4023C22.9078 17.1902 22.7882 16.9025 22.7873 16.6021V11.0495C22.7879 10.7489 22.9075 10.4609 23.1194 10.2486C23.3313 10.0363 23.6183 9.91686 23.9176 9.91618H26.6806C26.7409 9.91921 26.7981 9.94502 26.8404 9.98876C26.884 10.0337 26.9085 10.094 26.9085 10.157C26.9085 10.22 26.884 10.2803 26.8404 10.3252C26.7981 10.369 26.7409 10.3948 26.6806 10.3978H23.9172C23.7443 10.3978 23.5787 10.4666 23.4567 10.5888C23.3347 10.711 23.2663 10.8766 23.2663 11.049V13.1396V13.5788H23.7055L25.7993 13.5788C25.7994 13.5788 25.7995 13.5788 25.7995 13.5788C25.948 13.579 26.0949 13.6086 26.232 13.6658C26.3692 13.723 26.4938 13.8068 26.5987 13.9123C26.7037 14.0179 26.7868 14.1432 26.8435 14.2811C26.9001 14.419 26.929 14.5667 26.9286 14.7159V14.717L26.9286 16.602Z" stroke="#B93C3C" stroke-width="0.878262"/>
<path id="Path 23736" d="M31.7744 17.7344H31.6674L31.6693 17.732L30.7574 17.7314C30.344 17.7312 29.9475 17.5666 29.6548 17.2737C29.3621 16.9808 29.1973 16.5833 29.1966 16.1685V11.4762C29.1975 11.0615 29.3625 10.6642 29.6551 10.3713C29.9477 10.0784 30.3441 9.91378 30.7574 9.91322H31.7763C32.1897 9.91407 32.5859 10.0791 32.8782 10.3725C33.1706 10.6659 33.3349 11.0638 33.3349 11.4787V16.1715C33.3346 16.5864 33.1698 16.984 32.8771 17.277C32.5844 17.57 32.1877 17.7344 31.7744 17.7344ZM29.6714 11.4779V11.4787L29.6714 16.1719L29.6714 16.1727C29.672 16.4591 29.7859 16.7337 29.9884 16.9363C30.191 17.1389 30.4657 17.2528 30.7523 17.2528H31.772C32.0586 17.2528 32.3333 17.1389 32.5359 16.9363C32.7384 16.7337 32.8523 16.4591 32.8529 16.1727V16.1719L32.8529 11.4787L32.8529 11.4779C32.8523 11.1915 32.7384 10.9169 32.5359 10.7144C32.3333 10.5118 32.0586 10.3978 31.772 10.3978H30.7523C30.4657 10.3978 30.191 10.5118 29.9884 10.7144C29.7859 10.9169 29.672 11.1916 29.6714 11.4779Z" stroke="#B93C3C" stroke-width="0.878262"/>
<path id="Path 23737" d="M35.8209 7.68887L35.8195 7.68887C35.5749 7.68913 35.3406 7.78658 35.1679 7.95956L35.167 7.96053C35.0173 8.11137 34.9245 8.30937 34.9042 8.5208C34.884 8.73223 34.9374 8.94424 35.0556 9.12079C35.1738 9.29735 35.3495 9.42762 35.553 9.48922C35.7565 9.55082 35.975 9.53989 36.1713 9.4583C36.3676 9.37673 36.5295 9.22962 36.6295 9.04218C36.7296 8.85477 36.7617 8.63851 36.7205 8.43014C36.6793 8.22177 36.5673 8.03396 36.4033 7.89875C36.2393 7.76353 36.0335 7.68931 35.8209 7.68887ZM36.5993 9.77961C36.3686 9.93379 36.0975 10.0159 35.8204 10.0156C35.4494 10.0153 35.0935 9.86745 34.831 9.60437C34.5684 9.34127 34.4205 8.98435 34.4201 8.61191C34.4199 8.33371 34.502 8.06175 34.656 7.83046C34.81 7.59917 35.029 7.41898 35.285 7.31257C35.5411 7.20615 35.8229 7.17825 36.0947 7.23236C36.3666 7.28647 36.6164 7.42018 36.8126 7.61671C37.0087 7.81324 37.1424 8.06376 37.1965 8.3366C37.2506 8.60945 37.2227 8.89224 37.1163 9.14914C37.01 9.40604 36.83 9.62542 36.5993 9.77961Z" stroke="#B93C3C" stroke-width="0.878262"/>
<path id="Path 23738" d="M22.6133 22.1939L22.6131 22.1938C22.5681 22.1487 22.5073 22.1235 22.4441 22.1235C22.3808 22.1235 22.32 22.1487 22.2751 22.1938C22.2301 22.2388 22.2046 22.3002 22.2046 22.3643C22.2046 22.4283 22.23 22.4896 22.2749 22.5346C22.275 22.5347 22.275 22.5347 22.2751 22.5348L23.4084 23.6685L24.191 24.4513L23.0846 24.4179C18.9394 24.2926 15.4127 23.7096 12.9094 22.9305C11.6605 22.5418 10.6456 22.0979 9.93301 21.6239C9.25173 21.1706 8.71603 20.6012 8.71603 19.9276C8.71603 19.4012 9.09347 18.8819 9.69511 18.4208C10.3171 17.944 11.2684 17.4573 12.6236 17.0085L22.6133 22.1939ZM22.6133 22.1939L24.9341 24.5167C24.9342 24.5168 24.9343 24.5169 24.9343 24.5169C24.9792 24.5621 25.0046 24.6234 25.0046 24.6874C25.0046 24.7515 24.9792 24.8128 24.9343 24.8579L22.6133 22.1939ZM12.853 16.1728L12.656 16.5637C12.6279 16.5495 12.5973 16.541 12.566 16.5387C12.5348 16.5364 12.5034 16.5403 12.4736 16.5501C11.0157 17.0341 9.93882 17.5865 9.23454 18.1752C8.53428 18.7606 8.23637 19.3501 8.23637 19.9282C8.23637 20.596 8.61648 21.2352 9.41547 21.8421C10.2154 22.4498 11.382 22.9808 12.8133 23.4228C15.6707 24.3053 19.4666 24.7984 23.1645 24.9047L24.1819 24.9339L23.4625 25.654L22.2749 26.8426L22.2698 26.8477L22.2645 26.8526C22.241 26.8747 22.2221 26.9013 22.209 26.9309C22.1959 26.9605 22.1888 26.9925 22.1883 27.025C22.1877 27.0574 22.1937 27.0896 22.2059 27.1197C22.218 27.1497 22.236 27.177 22.2588 27.1998L21.948 27.51L22.2588 27.1998C22.2816 27.2226 22.3087 27.2406 22.3384 27.2526C22.3682 27.2647 22.4 27.2706 22.4321 27.2701C22.4641 27.2695 22.4958 27.2625 22.5251 27.2495L22.7035 27.6508L22.5251 27.2495C22.5544 27.2365 22.5809 27.2176 22.6029 27.194L22.6079 27.1887L22.6131 27.1835L24.9341 24.8581L12.853 16.1728ZM12.853 16.1728L12.656 16.5637C12.6841 16.5778 12.7092 16.5974 12.7299 16.6214C12.7505 16.6454 12.7663 16.6732 12.7762 16.7034C12.7862 16.7335 12.7901 16.7654 12.7878 16.7971C12.7855 16.8288 12.7769 16.8597 12.7627 16.8881C12.7485 16.9164 12.7288 16.9416 12.705 16.9623C12.6811 16.9829 12.6535 16.9986 12.6236 17.0085L12.853 16.1728Z" stroke="#B93C3C" stroke-width="0.878262"/>
<path id="Path 23739" d="M37.0414 16.5457L37.0486 16.5484L37.0559 16.5508C38.5134 17.0341 39.5901 17.5864 40.2942 18.1751C40.9943 18.7605 41.292 19.35 41.2918 19.928V19.9282C41.2918 20.5546 40.95 21.1591 40.229 21.7395C39.5059 22.3216 38.4467 22.8396 37.1353 23.2799C34.5195 24.1581 31.0127 24.6906 27.5002 24.8649L27.4787 24.8648L27.476 24.8649C27.4134 24.8652 27.353 24.841 27.3078 24.7971C27.2626 24.7531 27.2363 24.693 27.2348 24.6295C27.2333 24.5661 27.2567 24.5047 27.2998 24.4586L26.979 24.1588L27.2998 24.4586C27.3428 24.4126 27.4021 24.3855 27.4646 24.3829L27.4646 24.3829L27.4679 24.3827C31.4879 24.1848 34.7619 23.5842 37.0443 22.8171C38.1829 22.4344 39.0956 22.0033 39.7331 21.5457C40.3477 21.1044 40.8133 20.5595 40.8133 19.9282C40.8133 19.4015 40.4354 18.8832 39.8341 18.4227C39.2123 17.9465 38.2613 17.4596 36.9065 17.0082L36.8989 17.0056L36.8912 17.0034C36.8604 16.9943 36.8316 16.9792 36.8067 16.9587C36.7818 16.9383 36.7611 16.9129 36.7461 16.8842C36.7311 16.8555 36.722 16.8241 36.7193 16.7917C36.7167 16.7593 36.7205 16.7267 36.7307 16.6959C36.7409 16.6651 36.7572 16.6367 36.7785 16.6124C36.7998 16.5881 36.8257 16.5684 36.8547 16.5545C36.8836 16.5405 36.9151 16.5326 36.9471 16.5311C36.9792 16.5296 37.0112 16.5345 37.0414 16.5457Z" stroke="#B93C3C" stroke-width="0.878262"/>
</g>
</g>
</g>
</svg>
