<svg width="24" height="24" viewBox="0 0 24 24" fill="none" xmlns="http://www.w3.org/2000/svg">
<g id="vuesax-linear-trash 1" clip-path="url(#clip0_1_582)">
<g id="vuesax/linear/trash">
<g id="trash">
<path id="Vector" d="M21 5.97998C17.67 5.64998 14.32 5.47998 10.98 5.47998C8.99622 5.48017 7.01371 5.5803 5.04 5.77998L3 5.97998" stroke="#FF0000" stroke-linecap="round" stroke-linejoin="round"/>
<path id="Vector_2" d="M8.5 4.97L8.72 3.66C8.88 2.71 9 2 10.69 2H13.31C15 2 15.13 2.75 15.28 3.67L15.5 4.97" stroke="#FF0000" stroke-linecap="round" stroke-linejoin="round"/>
<path id="Vector_3" d="M18.85 9.14001L18.2 19.21C18.09 20.78 18 22 15.21 22H8.79002C6.00002 22 5.91002 20.78 5.80002 19.21L5.15002 9.14001" stroke="#FF0000" stroke-linecap="round" stroke-linejoin="round"/>
<path id="Vector_4" d="M10.33 16.5H13.66" stroke="#FF0000" stroke-linecap="round" stroke-linejoin="round"/>
<path id="Vector_5" d="M9.5 12.5H14.5" stroke="#FF0000" stroke-linecap="round" stroke-linejoin="round"/>
</g>
</g>
</g>
<defs>
<clipPath id="clip0_1_582">
<rect width="24" height="24" fill="white"/>
</clipPath>
</defs>
</svg>
