<svg width="21" height="16" viewBox="0 0 21 16" fill="none" xmlns="http://www.w3.org/2000/svg">
<g id="Group">
<path id="Vector" d="M11.87 15.7481H3.5728C2.7726 15.7481 2.00517 15.4027 1.43934 14.788C0.873512 14.1734 0.555634 13.3397 0.555634 12.4704V4.27611C0.555634 3.40681 0.873512 2.57312 1.43934 1.95843C2.00517 1.34374 2.7726 0.998413 3.5728 0.998413H11.87C12.6702 0.998413 13.4376 1.34374 14.0035 1.95843C14.5693 2.57312 14.8872 3.40681 14.8872 4.27611V12.4704C14.8872 13.3397 14.5693 14.1734 14.0035 14.788C13.4376 15.4027 12.6702 15.7481 11.87 15.7481ZM3.5728 2.63726C3.1727 2.63726 2.78898 2.80993 2.50607 3.11727C2.22315 3.42461 2.06422 3.84146 2.06422 4.27611V12.4704C2.06422 12.905 2.22315 13.3219 2.50607 13.6292C2.78898 13.9365 3.1727 14.1092 3.5728 14.1092H11.87C12.2701 14.1092 12.6538 13.9365 12.9367 13.6292C13.2196 13.3219 13.3786 12.905 13.3786 12.4704V4.27611C13.3786 3.84146 13.2196 3.42461 12.9367 3.11727C12.6538 2.80993 12.2701 2.63726 11.87 2.63726H3.5728Z" fill="#707070"/>
<path id="Vector_2" d="M19.4125 13.2897C19.3452 13.2895 19.2783 13.2798 19.2133 13.261L13.9333 11.6959C13.7402 11.6385 13.5761 11.5002 13.4769 11.3113C13.3778 11.1225 13.3517 10.8986 13.4045 10.6888C13.4573 10.4791 13.5847 10.3008 13.7585 10.1931C13.9324 10.0853 14.1385 10.057 14.3315 10.1144L18.6582 11.3968V5.34947L14.3315 6.63187C14.1385 6.68924 13.9324 6.66096 13.7585 6.55323C13.5847 6.44551 13.4573 6.26717 13.4045 6.05745C13.3517 5.84773 13.3778 5.62381 13.4769 5.43495C13.5761 5.24609 13.7402 5.10775 13.9333 5.05038L19.2133 3.48528C19.3253 3.45199 19.4428 3.44722 19.5567 3.47134C19.6706 3.49545 19.7779 3.54781 19.8702 3.62432C19.9624 3.70084 20.0372 3.79945 20.0886 3.91249C20.1401 4.02552 20.1668 4.14993 20.1667 4.27602V12.4703C20.1667 12.6876 20.0873 12.896 19.9458 13.0497C19.8044 13.2034 19.6125 13.2897 19.4125 13.2897Z" fill="#707070"/>
</g>
</svg>
